<?xml version="1.0" encoding="UTF-8"?>
<svg width="54px" height="53px" viewBox="0 0 54 53" version="1.1" xmlns="http://www.w3.org/2000/svg" xmlns:xlink="http://www.w3.org/1999/xlink">
    <!-- Generator: Sketch 53.1 (72631) - https://sketchapp.com -->
    <title>logo/lululemon-icon</title>
    <desc>Created with Sketch.</desc>
    <g id="logo/lululemon-icon" stroke="none" stroke-width="1" fill="none" fill-rule="evenodd">
        <g id="lululemon-icon" transform="translate(0.906250, 0.000000)" fill="#000000" fill-rule="nonzero">
            <path d="M26.35,1.89955994e-06 C33.3428391,-0.00265092276 40.0501776,2.77338423 44.9957996,7.71713072 C49.9414215,12.6608772 52.7200005,19.3671623 52.72,26.3600019 C52.719999,40.9169259 40.920256,52.7181597 26.3633321,52.7199998 C11.8064082,52.7218399 0.00368208126,40.9235896 8.61318731e-07,26.366666 C-0.00368035862,11.8097425 11.793077,0.00552425314 26.35,1.89955994e-06 Z M44.77,38.1218797 C43.3512407,38.8863189 41.7872008,39.3429231 40.18,39.4618797 C39.32784,39.4564673 38.4975885,39.191345 37.8,38.7018797 C33.53,35.8618797 34.99,32.4618797 37.9,27.1818797 C39.2338009,25.0219197 40.2761664,22.6950909 41,20.2618797 C41.61,17.7018797 42.16,13.9718797 39.94,11.1518797 C38.6972377,9.71270484 37.0596434,8.66965116 35.23,8.15187966 C32.5361037,7.35705732 29.738517,6.9694399 26.93,7.00187966 L25.82,7.00187966 C23.0114925,6.96958981 20.213928,7.35720417 17.52,8.15187966 C15.6903566,8.66965116 14.0527623,9.71270484 12.81,11.1518797 C10.59,13.9718797 11.14,17.7018797 11.76,20.2618797 C12.4721762,22.6943922 13.5045515,25.0214402 14.83,27.1818797 C17.74,32.4518797 19.2,35.8618797 14.93,38.7018797 C14.232986,39.1925021 13.4023625,39.4577432 12.55,39.4618797 C10.9565889,39.3368217 9.40684864,38.8804146 8,38.1218797 L8.25,38.5618797 C10.31,41.7218797 13,43.4018797 16,43.4018797 C17.4347556,43.361797 18.8451387,43.0211247 20.14,42.4018797 C21.7171132,41.6717924 23.025269,40.4650711 23.88,38.9518797 C24.750084,37.5382136 25.1034612,35.8667392 24.88,34.2218797 C24.392011,32.4640589 23.7975807,30.7375393 23.1,29.0518797 C21,23.6118797 18.1,16.1818797 20.61,12.5518797 C21.61,11.0218797 23.54,10.2718797 26.36,10.2618797 C29.18,10.2518797 31.07,11.0218797 32.11,12.5518797 C34.59,16.1818797 31.72,23.6118797 29.62,29.0418797 C28.912187,30.7404695 28.3077503,32.4803122 27.81,34.2518797 C27.5833183,35.9000465 27.9368415,37.5757466 28.81,38.9918797 C29.6636268,40.5083674 30.9717993,41.7186018 32.55,42.4518797 C33.8450608,43.0705634 35.2553231,43.4112065 36.69,43.4518797 C39.69,43.4518797 42.41,41.7718797 44.53,38.5918797 L44.77,38.1218797 Z" id="Shape-Copy-3"></path>
        </g>
    </g>
</svg>