<?xml version="1.0" encoding="UTF-8"?>
<svg width="20px" height="20px" viewBox="0 0 20 20" version="1.1" xmlns="http://www.w3.org/2000/svg" xmlns:xlink="http://www.w3.org/1999/xlink">
    <!-- Generator: Sketch 53.1 (72631) - https://sketchapp.com -->
    <title>icon / search</title>
    <desc>Created with Sketch.</desc>
    <defs>
        <path d="M21.7,20.3 L17.2,15.8 C18.3,14.4 19,12.5 19,10.5 C19,5.8 15.2,2 10.5,2 C5.8,2 2,5.8 2,10.5 C2,15.2 5.8,19 10.5,19 C12.5,19 14.3,18.3 15.8,17.2 L20.3,21.7 C20.5,21.9 20.8,22 21,22 C21.2,22 21.5,21.9 21.7,21.7 C22.1,21.3 22.1,20.7 21.7,20.3 Z M4,10.5 C4,6.9 6.9,4 10.5,4 C14.1,4 17,6.9 17,10.5 C17,12.3 16.3,13.9 15.1,15.1 C15.1,15.1 15.1,15.1 15.1,15.1 C15.1,15.1 15.1,15.1 15.1,15.1 C13.9,16.3 12.3,17 10.5,17 C6.9,17 4,14.1 4,10.5 Z" id="path-1"></path>
    </defs>
    <g id="Symbols" stroke="none" stroke-width="1" fill="none" fill-rule="evenodd">
        <g id="Mobile-/-Navigation-/-Lulu" transform="translate(-257.000000, -14.000000)">
            <g id="Header">
                <g id="icon-/-search" transform="translate(255.000000, 12.000000)">
                    <mask id="mask-2" fill="white">
                        <use xlink:href="#path-1"></use>
                    </mask>
                    <use id="Mask" fill="#000000" fill-rule="nonzero" xlink:href="#path-1"></use>
                    <g id="colors-/-🎨-Black" mask="url(#mask-2)" fill="#000000" fill-rule="evenodd">
                        <rect id="Rectangle" x="0" y="0" width="24" height="24"></rect>
                    </g>
                </g>
            </g>
        </g>
    </g>
</svg>